<svg aria-hidden="true" style="position: absolute; width: 0; height: 0; overflow: hidden;" version="1.1" xmlns="http://www.w3.org/2000/svg" xmlns:xlink="http://www.w3.org/1999/xlink">
<defs>
<symbol id="icon-star-full" viewBox="0 0 20 20">
<title>star-full</title>
<path d="M10 15l-5.878 3.090 1.123-6.545-4.756-4.635 6.572-0.955 2.939-5.955 2.939 5.955 6.572 0.955-4.756 4.635 1.123 6.545z"></path>
</symbol>
<symbol id="icon-search" viewBox="0 0 32 32">
<title>search</title>
<path d="M31.715 28.953c0.381 0.381 0.381 0.999 0 1.381l-1.381 1.381c-0.382 0.381-1 0.381-1.381 0l-9.668-9.668c-0.105-0.105-0.175-0.229-0.222-0.361-1.983 1.449-4.418 2.314-7.063 2.314-6.627 0-12-5.373-12-12s5.373-12 12-12c6.627 0 12 5.373 12 12 0 2.645-0.865 5.080-2.314 7.063 0.132 0.047 0.256 0.116 0.361 0.222l9.668 9.668zM12 4c-4.418 0-8 3.582-8 8s3.582 8 8 8 8-3.582 8-8c0-4.418-3.582-8-8-8z"></path>
</symbol>
<symbol id="icon-checkmark" viewBox="0 0 32 32">
<title>checkmark</title>
<path d="M28.998 8.531l-2.134-2.134c-0.394-0.393-1.030-0.393-1.423 0l-12.795 12.795-6.086-6.13c-0.393-0.393-1.029-0.393-1.423 0l-2.134 2.134c-0.393 0.394-0.393 1.030 0 1.423l8.924 8.984c0.393 0.393 1.030 0.393 1.423 0l15.648-15.649c0.393-0.392 0.393-1.030 0-1.423z"></path>
</symbol>
<symbol id="icon-location" viewBox="0 0 32 32">
<title>location</title>
<path d="M11.163 11.554c0-2.655 2.166-4.807 4.837-4.807s4.837 2.152 4.837 4.807-2.166 4.806-4.837 4.806-4.837-2.152-4.837-4.806zM7.777 12.154c0 2.011 2.454 6.25 2.454 6.25l5.769 9.614 5.438-9.613c0 0 2.785-4.27 2.785-6.25 0-4.513-3.682-8.171-8.223-8.171s-8.223 3.657-8.223 8.17z"></path>
</symbol>
<symbol id="icon-map" viewBox="0 0 32 32">
<title>map</title>
<path d="M19.985 28.050l7.033-3.214v-20.886l-7.033 3.213v20.887zM12.015 24.836l6.98 2.893v-20.887l-6.98-2.892v20.886zM3.981 7.163v20.887l7.043-2.892v-20.887l-7.043 2.892z"></path>
</symbol>
<symbol id="icon-key" viewBox="0 0 32 32">
<title>key</title>
<path d="M17.837 17.542l-10.049 10.049c-0.778 0.778-2.043 0.776-2.824-0.005s-0.783-2.045-0.005-2.823l0.764-0.764-2.165-2.166c-0.391-0.39-0.392-1.022-0.003-1.412 0.39-0.39 1.021-0.388 1.412 0.003l2.166 2.166 0.705-0.705-0.752-0.752c-0.391-0.391-0.392-1.022-0.002-1.412 0.389-0.389 1.021-0.389 1.412 0.002l0.751 0.752 0.705-0.705-2.166-2.166c-0.391-0.391-0.392-1.021-0.002-1.411 0.389-0.39 1.021-0.389 1.412 0.002l2.165 2.166 3.649-3.649c-2.365-3.295-2.659-7.228-0.48-9.406 2.53-2.53 7.431-1.732 10.945 1.783s4.313 8.415 1.782 10.945c-2.181 2.181-6.122 1.882-9.42-0.492zM23.349 9.202c-1.562-1.562-3.618-2.040-4.591-1.066s-0.496 3.028 1.066 4.591c1.562 1.562 3.617 2.039 4.591 1.066s0.495-3.029-1.066-4.591z"></path>
</symbol>
<symbol id="icon-chat" viewBox="0 0 32 32">
<title>chat</title>
<path d="M25.042 18.672v-12.487c0-1.234-1-2.236-2.236-2.236h-19.571c-1.235-0.001-2.236 1.001-2.236 2.236v12.487c0 1.235 1.001 2.236 2.236 2.236h3.729v5.137l5.704-5.137h10.137c1.237 0 2.237-1.001 2.237-2.236zM28.765 8.858h-2.798c0 0 0 9.972 0 10.909s-1.216 2.142-2.153 2.142-10.945 0.055-10.945 0.055c0 1.235 1.001 1.986 2.236 1.986h4.309l5.622 5.102-0.007-5.102h3.736c1.236 0 2.236-0.751 2.236-1.986v-10.932c0-1.234-1-2.174-2.236-2.174z"></path>
</symbol>
<symbol id="icon-library" viewBox="0 0 32 32">
<title>library</title>
<path d="M3.425 13.953c0 0 24.137 0 24.173 0 0.583-0.255 0.557-0.802 0.011-1.165-0.547-0.365-12.119-8.718-12.119-8.718s-11.482 8.353-12.065 8.718c-0.582 0.363-0.619 0.91 0 1.165zM15.49 8.195c0.965 0 1.748 0.782 1.748 1.747s-0.783 1.748-1.748 1.748-1.747-0.783-1.747-1.748 0.782-1.747 1.747-1.747zM4.027 26.932h22.968v-0.977h-22.968v0.977zM9 24.936v-8.903h0.978v-1.103h-4.993v1.003h0.978v9.002h3.037zM17.030 24.936v-8.966h0.978v-0.978h-4.992v0.94h0.977v9.002h3.037zM3.030 28.93h24.963v-0.914h-24.963v0.914zM24.998 24.936v-8.966h0.978v-0.978h-4.993v0.94h0.979v9.002h3.036z"></path>
</symbol>
<symbol id="icon-bookmark" viewBox="0 0 32 32">
<title>bookmark</title>
<path d="M15.476 19.461l-8.451 8.501v-22.924h16.951v22.924l-8.5-8.501z"></path>
</symbol>
<symbol id="icon-plane" viewBox="0 0 32 32">
<title>plane</title>
<path d="M15.521 3.91c0.828 0 1.5 0.672 1.5 1.5v7.75l10 6.25v2.688l-10-3.375v5.25l2.039 2.029-0.001 2.084-3.538-1.176-3.487 1.18 0.015-2.189 1.91-1.865 0.017-5.312-9.997 3.436 0.021-2.75 10.007-6.313 0.016-7.688c-0.002-0.827 0.67-1.499 1.498-1.499z"></path>
</symbol>
</defs>
</svg>
